<?xml version="1.0" encoding="utf-8"?>
<!-- Generator: Adobe Illustrator 25.0.0, SVG Export Plug-In . SVG Version: 6.00 Build 0)  -->
<svg version="1.1" id="Layer_1" xmlns="http://www.w3.org/2000/svg" xmlns:xlink="http://www.w3.org/1999/xlink" x="0px" y="0px"
	 width="260px" height="50px" viewBox="0 0 260 50" style="enable-background:new 0 0 260 50;" xml:space="preserve">
<style type="text/css">
	.st0{fill:#002169;}
	.st1{fill:#C10230;}
</style>
<g>
	<path class="st0" d="M260,50H0V0h260V50z M0.39,49.61h259.22V0.39H0.39V49.61z"/>
	<g>
		<g>
			<path class="st0" d="M19.04,19.3h1.37l3.05,4.89l3-4.89h1.38l-3.78,6.19v5.66h-1.18v-5.66L19.04,19.3z"/>
			<path class="st0" d="M34.74,19.3h6.83v1.16h-5.64v3.71h5.59v1.16h-5.59v4.66h5.59v1.16h-6.78V19.3z"/>
			<path class="st0" d="M48.85,31.15V19.3h0.26l7.93,9.09V19.3h1.18v11.85h-0.27l-7.87-8.97v8.97H48.85z"/>
			<path class="st0" d="M66.79,16.56c0.26,0,0.48,0.09,0.66,0.27c0.18,0.18,0.28,0.4,0.28,0.66s-0.09,0.48-0.28,0.66
				c-0.18,0.18-0.41,0.27-0.66,0.27s-0.48-0.09-0.66-0.27c-0.18-0.18-0.28-0.4-0.28-0.66s0.09-0.48,0.28-0.66
				C66.31,16.65,66.53,16.56,66.79,16.56z M66.2,19.3h1.19v11.85H66.2V19.3z"/>
			<path class="st0" d="M75.38,19.3h1.22v4.45l4.77-4.45h1.6l-5.73,5.32l6.17,6.53h-1.59l-5.22-5.52v5.52h-1.22V19.3z"/>
			<path class="st0" d="M94.93,19c1.81,0,3.32,0.6,4.53,1.8c1.22,1.2,1.82,2.67,1.82,4.42c0,1.74-0.61,3.21-1.82,4.42
				c-1.21,1.21-2.69,1.81-4.44,1.81c-1.77,0-3.26-0.6-4.48-1.8c-1.22-1.2-1.82-2.66-1.82-4.37c0-1.14,0.28-2.19,0.83-3.17
				c0.55-0.97,1.31-1.73,2.27-2.28C92.78,19.27,93.82,19,94.93,19z M94.98,20.15c-0.88,0-1.72,0.23-2.51,0.68
				c-0.79,0.46-1.41,1.07-1.85,1.85c-0.44,0.77-0.67,1.64-0.67,2.59c0,1.41,0.49,2.6,1.47,3.57c0.98,0.97,2.17,1.46,3.55,1.46
				c0.93,0,1.78-0.22,2.57-0.67c0.79-0.45,1.4-1.06,1.84-1.83c0.44-0.77,0.66-1.63,0.66-2.58c0-0.94-0.22-1.79-0.66-2.55
				c-0.44-0.76-1.06-1.37-1.86-1.83C96.73,20.38,95.88,20.15,94.98,20.15z M93.36,16.52c0.26,0,0.48,0.09,0.66,0.27
				c0.18,0.18,0.28,0.4,0.28,0.66c0,0.26-0.09,0.48-0.28,0.66c-0.18,0.18-0.41,0.27-0.66,0.27c-0.26,0-0.48-0.09-0.66-0.27
				c-0.18-0.18-0.28-0.4-0.28-0.66c0-0.26,0.09-0.48,0.28-0.66C92.88,16.61,93.1,16.52,93.36,16.52z M96.66,16.52
				c0.26,0,0.48,0.09,0.66,0.27c0.18,0.18,0.28,0.4,0.28,0.66c0,0.26-0.09,0.48-0.28,0.66c-0.18,0.18-0.41,0.27-0.66,0.27
				c-0.26,0-0.48-0.09-0.66-0.27c-0.18-0.18-0.28-0.4-0.28-0.66c0-0.26,0.09-0.48,0.28-0.66C96.18,16.61,96.4,16.52,96.66,16.52z"/>
			<path class="st0" d="M106.79,19.3h1.37l3.05,4.89l3-4.89h1.38l-3.78,6.19v5.66h-1.18v-5.66L106.79,19.3z"/>
			<path class="st1" d="M122.48,19.3h1.22v4.45l4.77-4.45h1.6l-5.73,5.32l6.17,6.53h-1.59l-5.22-5.52v5.52h-1.22V19.3z"/>
			<path class="st1" d="M137.32,19.3h6.83v1.16h-5.64v3.71h5.59v1.16h-5.59v4.66h5.59v1.16h-6.78V19.3z"/>
			<path class="st1" d="M150.8,31.15l1.71-11.85h0.19l4.85,9.73l4.8-9.73h0.19l1.72,11.85h-1.17l-1.18-8.48l-4.21,8.48h-0.3
				l-4.27-8.54l-1.17,8.54H150.8z"/>
			<path class="st1" d="M171.67,19.3h6.83v1.16h-5.64v3.71h5.59v1.16h-5.59v4.66h5.59v1.16h-6.78V19.3z"/>
			<path class="st1" d="M185.8,19.3h2.37c1.32,0,2.22,0.05,2.69,0.16c0.71,0.16,1.28,0.51,1.73,1.04c0.44,0.53,0.66,1.18,0.66,1.96
				c0,0.65-0.15,1.21-0.46,1.7c-0.31,0.49-0.74,0.86-1.31,1.11c-0.57,0.25-1.35,0.38-2.35,0.38l4.29,5.5h-1.47l-4.29-5.5H187v5.5
				h-1.19V19.3z M187,20.46v4.03l2.05,0.02c0.8,0,1.38-0.08,1.77-0.23c0.38-0.15,0.68-0.39,0.89-0.72c0.21-0.33,0.32-0.7,0.32-1.11
				c0-0.4-0.11-0.76-0.32-1.08c-0.22-0.32-0.5-0.56-0.85-0.7c-0.35-0.14-0.94-0.21-1.75-0.21H187z"/>
			<path class="st1" d="M200.75,19.3h1.22v4.45l4.77-4.45h1.6l-5.73,5.32l6.17,6.53h-1.59l-5.22-5.52v5.52h-1.22V19.3z"/>
			<path class="st1" d="M220.3,19c1.81,0,3.32,0.6,4.53,1.8s1.82,2.67,1.82,4.42c0,1.74-0.61,3.21-1.82,4.42
				c-1.21,1.21-2.69,1.81-4.44,1.81c-1.77,0-3.26-0.6-4.48-1.8c-1.22-1.2-1.82-2.66-1.82-4.37c0-1.14,0.28-2.19,0.83-3.17
				c0.55-0.97,1.31-1.73,2.27-2.28C218.16,19.27,219.19,19,220.3,19z M220.36,20.15c-0.88,0-1.72,0.23-2.51,0.68
				c-0.79,0.46-1.41,1.07-1.85,1.85c-0.44,0.77-0.67,1.64-0.67,2.59c0,1.41,0.49,2.6,1.47,3.57c0.98,0.97,2.17,1.46,3.55,1.46
				c0.93,0,1.78-0.22,2.57-0.67c0.79-0.45,1.4-1.06,1.84-1.83c0.44-0.77,0.66-1.63,0.66-2.58c0-0.94-0.22-1.79-0.66-2.55
				c-0.44-0.76-1.06-1.37-1.86-1.83C222.1,20.38,221.26,20.15,220.36,20.15z M218.73,16.52c0.26,0,0.48,0.09,0.66,0.27
				c0.18,0.18,0.28,0.4,0.28,0.66c0,0.26-0.09,0.48-0.28,0.66c-0.18,0.18-0.41,0.27-0.66,0.27s-0.48-0.09-0.66-0.27
				c-0.18-0.18-0.28-0.4-0.28-0.66c0-0.26,0.09-0.48,0.28-0.66C218.25,16.61,218.47,16.52,218.73,16.52z M222.03,16.52
				c0.26,0,0.48,0.09,0.66,0.27c0.18,0.18,0.28,0.4,0.28,0.66c0,0.26-0.09,0.48-0.28,0.66c-0.18,0.18-0.41,0.27-0.66,0.27
				s-0.48-0.09-0.66-0.27c-0.18-0.18-0.28-0.4-0.28-0.66c0-0.26,0.09-0.48,0.28-0.66C221.55,16.61,221.78,16.52,222.03,16.52z"/>
			<path class="st1" d="M232.16,19.3h1.37l3.05,4.89l3-4.89h1.38l-3.78,6.19v5.66h-1.18v-5.66L232.16,19.3z"/>
		</g>
	</g>
</g>
</svg>
